/* XPM */
static char *edef267adef2481cfde04189ef51424f2ue422WpUCeDCjIa[] = {
/* columns rows colors chars-per-pixel */
"64 64 22 1 ",
"  c gray30",
". c gray32",
"X c gray33",
"o c #5B5B5B",
"O c gray37",
"+ c #606060",
"@ c #656565",
"# c #6A6A6A",
"$ c #6F6F6F",
"% c #717171",
"& c #777777",
"* c #7B7B7B",
"= c gray49",
"- c #808080",
"; c #848484",
": c gray54",
"> c gray56",
", c #909090",
"< c #959595",
"1 c #989898",
"2 c #9F9F9F",
"3 c gray63",
/* pixels */
">,>,,,,,,>><,>>><<,<:,,,>,,:@1,,<11<<,<<,,>,,;,,,,<,>,>>,>>><1,O",
"<&*-;=&&&&*==-*&%&%**%&&=---$,***$$&*&*&&%&&*&*&*&**&*&**&&&=*&X",
",*=---==*;====**=-===-==*&=@>O:**$%-=*&**=&*%=*&%%&&&%&&&&&*-=*O",
">=;====--;-=&*=-==*=-*=%*@$,-*+:**===*%&*=%$*%=-*&=*=***&&&*-;=X",
",*=*======*&&****%=&*%%=+,>=*=*#>-&&*&%$%***&&*;*%=*&****=--*--O",
",=-=&*==*%&---**&*&&&&&@>$%&&&*@>-==*&%=--*&&&*;-*%:;==-=-=;-&*O",
">*=**&==-*&*==*&=****=#>=-&&&*&&+;:&*-=*&***=-==*&$---==-====-$ ",
":%&&%*=*&***&*%%**&&**+;%&$%&=-;-##:=****&%%&*&&**$--=*=*==-==-@",
">*&**&&%%&=*&***%&%*&+:&&#%=-=-***=@=&**&**%%&%**==*====***===&X",
":$%&*$&---**%*%$%##**@:%$*=*-==**=**#+@:==*&*==-==&&=&&&%&&==**o",
",&%*-%&-==--=&$$&$$=&+>$*&&===*==-=&==&#+:$&**==--&&&&&*#@###@@o",
":=%**==-*===&&***-&%+:**=&***=*&*---**;=-#@o:&&=-=*&*$#+>,>,,>>X",
"++:>==*-=**=&*&&&*=@;&&-*****&*&==----:;=-=*+:=-;--@@,,>***&%&&o",
"1*@O+:-=-*&=*==#+++>*%%=****-==*=**=-=--=*&&&@:&&&#,>**&&&==--*O",
">*&=*O+@<=&&%&@1,,>=**%--;==-=*===-==&&;-**=%%o;++:$%%&&&%**===O",
",-=-***=+:*=*@>*===**==;-====-=**&==***-%%$%=&+@,,=*=;;-==&**&*X",
":&*=-**-*@;&=@>%&&*&=-&==-=*****&=&&%&*%==**%&#,*&&&*====*-&*-=X",
">%**=**=*@:&+>&&*&==;=%==*=**=-&*&**----==**==#,****-=-=*&**%%$X",
">&====*==-#@>-&*%****=&=*&-&&==-;===&-===-=**=#<==-=&&=*%&&*%%%O",
">****&&*=&#:%$=;--;;-$&==**-===****=&&****&&*@,=--=***=**&**-&*X",
",==*&&*&=;$,&*&***===&$=&-=&*%%&&%**&&=&&**&=#,=-=*&****&&===-&X",
">%**$$&--$>*******=**&#%*&&&==***&*=*$$%%%%$%+>**&%%%%%$$#$-=**o",
">#*=*&&:;%<=*&&&%&==-=%=*&*&&=*&&**==%&;;;=%%#,-*&&=-***&$$=**%o",
"-&;-:;-=-%<&%&&*%-;--=*=&=****&*=&=-====:--*$<;=&&%&***===-%**%.",
",&%=*&**-%,=*=*=-;====&**---=%%*=--=*&&&&&&&+>&&&%&=&*&&===;=*$X",
",=--=*=*#,*%*=&&*&====*=-;-=***=-=-;*&%&%*&*#>*=&%%%%%&&&&&*-$#o",
",*==&=*=#>&&=-*&&*****%***==****=-=;-===*-=$>**=&**&&%&&*%&&*&$X",
">*&****+>&&*%*&&**=-*&&****&%***=*-=*=--%*=$<=*--=--=******&&-- ",
"<==***@>===-*%&%&&**=*%&**&&%**%&&&*&%&&&$%@:***&*&*******&=--*X",
":&&%%O:&*-===&*=%***&%$Ooo@+&&&&&%&%$+#&%$o;&&*&&%%&*%%&$&%%&&*X",
"<--*&+;*##$$$###%$$#$oX+oOooO#@@$%$$$##$&%O:%*&*==****&*-;-;-*=+",
"oooX..oXooOoooXXXOoXo.XXooOooX..XOOXo@O+o.XXOO+O++XXXoXXoOXXoooo",
"<<1<:@<<,<,1,>>1>>>,,2,<<<<<11;o##%$#1<1<><<1<@3<<<11<21,1<1112<",
"=&*&%+,*&%*&%$#&%$$&%$$*%*%$&*%.O@$11*&%&%&&$%O:%&&&*****=&*&*%*",
"==***@,&*&%**%&***&%*&**%&&&**&X#@1*%*&&*&&&*@>&%*&=--=-*=*=*&&&",
"=**&*+>==*&**&-===**%&&=&*&%&**X$1***==***&*#,***------;---==*=*",
"*&&$&O<=-=**&***=*&&%%*=-=**--&o$1*-==-;;=*#<;=-=-**&**====-=&%=",
"*&%%&%@:*&%%%%&&=*&&$*&%&===---@2%&==**=-=&@,===-=**&&&*=******=",
"*-====$1;:---=%%=--*=;:-;*&-=*%o1$%***%%%%%+>**%&*&&*===---;--==",
"-&&&&&-+>,;=&*--=-%***=&&==%&&&O1#$*$&=-*=#$<=;;;==-&%=*=-====*&",
"==**&==-#O:,*&&&-&&&&===**&*%&*+<#$%*-*%*$,#,&%&**%*==%&=***&=*;",
"-*&**&==*-#+:&***-%&%%&****&-*#.>@&;--**@;%+>%&*&**=*=-:&&%&%&--",
"=**&**&%&=-;@>**&&$&$$%****&*$%O1#*-==#+:&*#,=&*=-=-=&==***=--&=",
"=**&*=%***===@:***%*&***=***=**o<*-*&+,>=*&*@>==--==&&-=**&==*%=",
"&***=*&&*&*==@<==&***=**-=**=*&O1&*=$<&&**&&&@>==****==-====**&*",
"$&$&=*&*-;;-**$,=&%=&==*==&&*&&X,&@#<=;-%%&**@,&==&&=&=---=-=%&&",
";*&*-=&*==--*&+,**&&====---==**O%@<,=*-=-=&=*&O;==*&&***=*&%&&%:",
"&*==&&&==*=&$&+>&**--***==*&&*%+3,===*&*=**%%*&o:=&*&&&*==***=;=",
"&***=&=***&*&=$,*&$&&*&&*%&$%*$o2=-=*=*%*====%=%+,**&=-==-=&;===",
"&**&&*%%%%&&%%@:%%%%%&&&*&%%%*&o1=-&&**&*=**&****+;%%&***==;-==&",
"&*=&&%*=-;-;-=#<*&--==-*=*&==%=@3*=*=*****&*&%=*=*@:,--===--=*&&",
"&&*&&&**==--=*#,*&***&&&%$%***&+3&&**&&*****&*%**%*@O>**=====***",
"&*&&&&*=--=-=-#:*&**&&*%&%&&*=%o2*&**&*&&*=*=*&-=**=*#>&*==*****",
"&&&*&&&*=-===*@,%*&**&&*==*&**%o,&&&&%%&%%%=*****==&*&@,***%*%&*",
"=&&%%***--;=-*#>&&&=&&&**==*=&$.2=*==-***$%==*=*******#,&&&*&***",
"=&*&**&***=-==@:&&%%%%%*==&%&&$O1&**=*&*&*&=***&*&&**&*@:$****=*",
"====-=====**=#>+>%&***%&=*=%%&$O<&&**&&&*=***=*&%%**=**&O:***===",
"=*==-&&=-*=O@:=*O:%&*&%%&&%%&$%o1$&&&&&%**=**=-*&&&&*==*=+;=*&==",
"-==&=*&&**@>;&&$%+;&$%&&&$$$$*$X<%&**&*=**&*%&&***&*-==&&*#,==--",
"*=====**&@>=**&==@:--=****&***%o1**&**&*&*&&*%&&%%&*=-%***@,*===",
"&*====*=&#,*-=*-*+;&&&*%%*%%&&%o1&==-=-*****==%&&%&=*&-==*=@>===",
"&&****=&%+>&=&=**$o=*=**==*&&&&o,&**&*&*&*&&&&=%$$%%*&&*-===@>==",
"$#$%$%$%o-#+#***=$#oO-$$$&%&&%&X,%&&&*&$%%$&&%#$#@#$$#$**&*&&+-%",
"oOOOXoXoOOoooXoo.X..X. X XXXXX .oXXoXXXXoX..X. ...... oOX.X.XOoX"
};
