/* XPM */
static char *a33748c0b4dd4735af709e03cc131adafhrOXKosxa7cUjj7[] = {
/* columns rows colors chars-per-pixel */
"64 64 22 1 ",
"  c #4C4C4C",
". c gray30",
"X c #505050",
"o c gray34",
"O c #5B5B5B",
"+ c #5D5D5D",
"@ c #606060",
"# c #676767",
"$ c #686868",
"% c gray43",
"& c #727272",
"* c #777777",
"= c gray48",
"- c #7E7E7E",
"; c #818181",
": c gray53",
"> c gray54",
", c gray55",
"< c #929292",
"1 c gray58",
"2 c #989898",
"3 c gray62",
/* pixels */
",,,<>,,,,,><,,>,<,,<>,,,,,,,><,<<<1<<<<,,<,,,:<,,,<<,<>,,,,,<1>+",
"<*=-:-*=*==-;;=*&=*=-%**;-;:--===%%*=**=*&*==&=*==*=***=-**=-=&O",
",=-;-;--=;--;-==--=--;=-=====**==&&;-*===-==*-=*&&***&****==;==+",
",-;---=;;:;=*=-;-=--;=-&==;;;====--=-=**=-&%=%-;=*-=--==***=;:=O",
",=-==----==***===*=***&-*===--=-=;=&=*&%&===**=:=&==*===*-;;=;-+",
"<-;-*==-***;;;-=*=******=%****===;--=*%-;;=***=;;=*::----;-;;*=+",
":=-==*-;;-*=--=*-==-=;-*--***=****===;-=*===-;--=*%;-;--;--=--&.",
">&*=&=-**==****&==**-=*&**%&*-;:;-;*;-===*&&=*=&==&;;==-==-;---#",
">==*=**&&&-=====&*&=-=***%&-;-;====-&=*===*&&&*==--=-----==-;-*o",
">%&*-%*-:;=*&*&&&%$===**%===;=-==--*-*-=--=*=-=;--**=*****=;--=o",
">*&=-&*;==;-=*$$&$#=&%&%*&&==**==*=&**%=*=%&***===***===-===---o",
">$&*=---=-=OOoOOO@OoOO+++oOO++OoO@#@O+#++++oooO+@+OO-;===---===X",
">*=--=*-;=*+<<<1<12<,,<111<1,11<1122223312<111<2321-1--===-=*=*O",
",==*==*-;=&@<-=-&&**=&%=====-=====*==----&&&******&+,*===*---;-+",
",===**=-;-&o,&=:-==-=-&;;;;-:==---;--=*:-===&&%&&&*X,&***&==---O",
",;--==&=*=*@2*==-;---==:;--==;-====-=*=;&&&&====--=+2;;;--*==*=o",
">*=;;==;-=%O1*****-*-;&--;-=-===*-*=&*=&--==&=-===*o1-==-=;==;-o",
">&==-=-===*O1*=*=*=-;;&--====-;*=*==;;-;---=-;=-==*O2=;-=*==*%%X",
">=----=--;=+1-**&*-==-*-**;===-;;;--*---=;-*-=--;-=+<*-=***=&&%+",
">===***=-**O>%-:;;:;;%&--==;--=-===-*&===***----;-=+<*-=**==-*=o",
",---=*=*=:=+<**=*----*%;*;-**&&**&===*-*===*---;;-*O<===**---;*o",
">&=*%%*;>;*O1========*$&=**&-;===*=-=$&&&&&%&*===&%.>%&&%%$--==O",
",%*-=**>::=@1****&-=--&-*==**-=**=---%*;::-**=-:=*&O2=-*=%%-=*&o",
";*:;::;-;:;O,**=&;:;-;*=****&**&*&*==*--:;-=--;-=*%o1*=---;&--&X",
">=&==*==;:-+1==-;:-=--**o+@@OXXO+@@+oXO=****=*=**%&@,***-=-:==&o",
",-;;-=----&o<==*=*--=-==@;--**==---;=&*<&=*=-=-=**%X,&******;%$o",
",=-=*-==-=&O2-=***===-&*O*******===-=*-<*;;;-==-*=*o<%**=***-&%O",
",===-=-*=*&O,*=&==-;==&*O=*%%*&&*&=**=-<&=;-;;=;---@2======**;-.",
"1;=--===--*@<&&**=-=-=*&o=&%%&*%&&&&%%&,*%**=-==***O1*====*=-;=O",
":**&*&*=-;=+1&-=&=*=**&&X**=&&&&%%%%$@#,%&%&**=**&%o<&**&*&&***X",
"1::-==*-%&%o<%%%*&&%&*%&X&%$&$#$&&%%$$%>**===---;;=+1-=-:>;::;;@",
",=**&&**===O1*=&==-=-&*#O**&&&%%*====--1*%&==;;=--&o<&**==***=&o",
":&==&&*=**&O<%&-&%&&*-&*X&&&&*%&&*-=&&&,&&*=-=*==*&+1*-;*====;=o",
"<*===*=-**&O,%$**&&*&&&*O*&%&**%%&***&*,****&****=&O2=---=-===&o",
",==--=-==*%O1&*==-******X&&&&**&&&**&&*,**==-==*&=&@2--;--=-=*&X",
",==***=--=*O<&;---==&**=o=&%%****&&*&*-<*===--=-=-;@1-;;-;---==O",
",*&&**-;;-*O<=====***%=*+-&**=*&*&&=-*-1;---;;;;;;*O,=--;--;-*%O",
",&&&&***=*%X,%**-=*=%=*%o=*==-;-=%*=**=<-==*-;==;-*+<**=======*O",
">=-=;-::;:;@2=&&-;;*-::;#=*-==**=%&==*&>&&*&*=-&**&+<---;;;;;;=o",
"<***&*-=;-;+<*-;=-*=*=-**1<:<,,<,:>,:><<*-;;:;;:;-=@,&-*-;=---=X",
",-===;-;-=*+1***;&***=--==**%*=-=$$&==*&=;;-=*&=-=%O1=&*=*=**-*@",
",**==*-==-*O<&=--;&*&&*=-==*-=%&%%&:-;-=*&%*=*&=*=*+<=;>=*&**&-O",
",*=*==&**--@1===**%*%%&**==*=%*-=%=:---=*==;--==-;=@1*-====-;-&o",
"<====-&*=*=+2=*===***==---==-=-===;=**-=======--;-=+,*-;=-*--*%O",
">=-=-=*****+1=;--*===-*=;-==-====---;;&=-=**===-==&+<-------*=%O",
";&%=-===;:;#1-;;-*&-=-----&===*-=*=-;;:;&&**=--*--&o1*-----;-&&X",
"<*&=--*=-=;@<=*==-**-;-=-;;;-==-;-------;-*==***-==o,===-=*&*&&#",
">*--***--=*o>**====--=-=--=&==*-----;=*=-*=*&=*%=-&O<**==--==--O",
">==*;&-===&O,-;-==%***&*=&*%&*&=;-;---=&*----&-&*-*O<=;--;-*;-*+",
">*==*=&&&*&o<&=&&*&&&***==&&&=-=-;;**==*=-=-*===*=&o>*==*-=:--*X",
":*-**&=-;:=@1==-=&=-=*=*=*&=*%--==********&*%%*==&&O1-;---;;-=*X",
">&=***==-==@:O+++OOOoOooXXXOOOO@@+OOOoO+OOO+ooXOOoO+<===-=---=*o",
">**=**=-;;-;<11<<<<1<,<,<><<<2,<21<11<1,,12<11<311<1<-=**--*==*o",
":*****==-----===&**=***===*&**&*=**&&%&&&%%=****=-=****--==*=&*X",
",**&&===--;;;-===*&=***==-==-*&%-;--;-===%*=;=;===-===--=*==*=*o",
",*=*======--;-=*****&&&*--*&***--===-=*===*-===*=***==--=%=====o",
",---;---------===*&===&*-*-&&*&-=**==***=-*==;=**&==--=**======o",
",*--;**----&=*-=**&*=*&&**&&*%*==&******-=;==-;-&***==-*=**===*O",
"<==*=***====&*=%&&*&&&&**%%%%=*****====-=-*-%=*===*=---*&=;-;--O",
">=-=-;===----=*--=*:;-=-======*==-=*=**=****=&*&&&*=-;*==---==*o",
":=-;--=-==----=-==&=***&*=&&**===--=;-;======-&****--*--===-=-*O",
":&=*==-****=-*=--%$&=-=--==****=&===*==**==***-&%%&&=**=;-----=O",
"-#%&%&%&%%$#$===-%#%*&$&%&&**&**&&*****%&%%**&#&$##$&$&==*==*&%o",
"O+@+oooO+OOOOoO+XXo.o..oXXoooXXXXOoooXoOOoXXoX.oXXXoX.OOoXXoXOOo"
};
