/* XPM */
static char *b3c86d5c01094cfdb5b09eeac47ef8eddTA4z7iI4Pz8a7dX[] = {
/* columns rows colors chars-per-pixel */
"64 64 111 2 ",
"   c None",
".  c #753A17",
"X  c #733719",
"o  c #783718",
"O  c #753B1B",
"+  c #7B3C1B",
"@  c #77411D",
"#  c #7B401D",
"$  c #7E4120",
"%  c #9F0F0F",
"&  c #A70F0F",
"*  c #A90E0E",
"=  c #AC1010",
"-  c #803E1E",
";  c #CA1313",
":  c #D71212",
">  c #DA1515",
",  c #E31414",
"<  c #EB1515",
"1  c #E11F1F",
"2  c #DE2D2D",
"3  c #E02B2B",
"4  c #81411C",
"5  c #A64F26",
"6  c #A94E24",
"7  c #AA4F28",
"8  c #A75325",
"9  c #AC5425",
"0  c #AD5926",
"q  c #A75629",
"w  c #AC552A",
"e  c #A75A2A",
"r  c #AD5A2B",
"t  c #B15526",
"y  c #B85727",
"u  c #B25A26",
"i  c #B85A27",
"p  c #B2562A",
"a  c #B95428",
"s  c #B25D2B",
"d  c #B25D2A",
"f  c #B75D28",
"g  c #B45D2A",
"h  c #B65D2A",
"j  c #B45F2A",
"k  c #B1582C",
"l  c #B3592C",
"z  c #B2592D",
"x  c #B15A2C",
"c  c #B15B2C",
"v  c #B15B2D",
"b  c #B35B2C",
"n  c #B25B2D",
"m  c #B0592E",
"M  c #B3592F",
"N  c #B45A2C",
"B  c #B65A2C",
"V  c #B75A2C",
"C  c #B75B2C",
"Z  c #B05D2C",
"A  c #B15D2C",
"S  c #B25D2C",
"D  c #B35D2C",
"F  c #B35D2F",
"G  c #B45C2C",
"H  c #B55D2D",
"J  c #B65C2C",
"K  c #B65F2C",
"L  c #B35B2B",
"P  c #B85A2B",
"I  c #B8592D",
"U  c #B85A2E",
"Y  c #B85B2B",
"T  c #B15D30",
"R  c #B35D31",
"E  c #B85E30",
"W  c #AE602F",
"Q  c #B0602A",
"!  c #B3602D",
"~  c #B4602C",
"^  c #B6602E",
"/  c #B5622F",
"(  c #B4612E",
")  c #B56130",
"_  c #949395",
"`  c #99989A",
"'  c #9C9B9D",
"]  c #9D9C9E",
"[  c #C0BFC1",
"{  c #C8C7C9",
"}  c #D1D0D2",
"|  c #D2D1D3",
" . c #D3D2D4",
".. c #D4D3D5",
"X. c #D5D4D6",
"o. c #D6D5D7",
"O. c #D7D6D8",
"+. c #D8D7D9",
"@. c #DAD9DB",
"#. c #DBDADC",
"$. c #DBDADD",
"%. c #DCDBDD",
"&. c #DEDDDF",
"*. c #DFDFE0",
"=. c #E1E0E2",
"-. c #E3E2E4",
";. c #E4E3E5",
":. c #E6E5E7",
">. c #E9E8EA",
",. c #EBEAEC",
"<. c #EFEEF0",
/* pixels */
"                                                                                                                                ",
"                                                                                                                                ",
"                                                                                                                                ",
"                                                                                                                                ",
"                                                ] ] ] ] ] ] ] ] ] ] ] ] ] ] ] ]                                                 ",
"                                    ] ] ] ] ] ] ;.;.;.;.;.;.;.;.;.;.;.;.;.;.;.;.] ] ] ] ] ]                                     ",
"                              ] ] ] :.-.:.-.;.;.;.;.;.;.;.;.;.;.;.;.;.;.;.;.;.;.;.;.;.;.:.-.' ] ]                               ",
"                        ] ] ] ;.:.-.-.-.:.-.;.;.;.;.;.;.;.;.;.;.;.;.;.;.;.;.;.;.;.;.;.;.;.;.;.;.$._ ` ]                         ",
"                    ] ] ;.;.;.;.;.;.;.;.;.;.;.;.;.;.;.;.;.;.;.;.;.;.;.;.;.;.;.;.;.;.;.;.;.;.;.$. .> ; -.] ]                     ",
"                ] ] ;.;.;.;.;.;.;.-.;.;.;.;.;.;.;.;.;.;.;.;.;.;.;.;.;.;.;.;.;.;.;.;.;.;.;.;.;.*.; > ; % :.;.] ]                 ",
"            ] ] ;.;.;.;.%.+.o.o.o.O.&.-.;.;.;.;.;.;.;.;.;.;.;.;.;.;.;.;.@.O.&.-.;.;.;.;.;.;.;.-.-.= % <.>.-.;.;.] ]             ",
"          ] ;.;.;.;.;.@. .> : : > > ; :.-.;.;.;.;.;.;.;.;.;.;.;.;.;.;.$. .> ; -.-.;.;.;.;.;.;.;.;.:.,.>.;.;.;.;.;.;.]           ",
"        ] ;.;.;.;.;.;.O.> < 3 , , , > = :.;.;.;.;.;.;.;.;.;.;.;.;.;.;.&.; > ; % ;.;.;.;.;.;.;.;.;.;.;.;.;.;.;.;.;.;.;.]         ",
"      ] ;.;.;.;.;.;.;.O.> 3 1 , , , , = ,.;.;.;.;.;.;.;.;.;.;.;.;.;.:.=.;.= & <.>.;.;.;.;.;.;.;.;.;.;.;.;.;.;.;.;.;.;.;.]       ",
"    ] ;.;.;.;.;.;.;.;.&.; : , , , , ; % ,.;.;.;.;.;.;.;.;.;.;.;.;.;.;.;.;.:.,.>.&.O.&.-.;.;.;.;.;.;.;.;.;.;.;.;.;.;.;.;.;.]     ",
"  ] ;.;.;.;.;.;.;.;.-.-.=.= & & & & % <.>.;.;.;.;.;.;.;.;.;.;.;.;.;.;.;.;.;.;.@. .> ; =.-.;.;.;.;.;.;.;.;.;.;.;.;.;.;.;.;.;.]   ",
"  ] ;.;.;.;.;.;.$.O.&.;.;.:.>.,.,.,.>.>.:.;.;.;.;.;.;.;.@.O.o.o.O.O.*.-.=.:.:.*.; > ; % :.-.-.-.;.;.;.;.;.;.;.;.;.;.;.;.;.;.]   ",
"] ;.;.;.;.;.;.%...> ; =.=.;.;.;.;.:.;.;.;.;.;.;.;.;.;.@. ., : : > > ; ;.=.:.=.=.:.= % <.,.:.-.-.;.;.;.;.;.;.;.;.;.;.;.;.;.;.;.] ",
"] ;.;.;.;.;.;.*.; > ; % :.;.;.;.;.;.;.;.;.;.;.;.;.;.-.O.> < 3 , , , > = :.:.=.:.=.:.,.>.@.O.X.O.o.+.&.=.;.;.;.;.;.;.;.;.;.;.;.] ",
"] ;.;.;.;.;.;.-.-.= % <.>.:.;.;.;.;.;.;.;.;.;.;.;.;.;.O.> 2 1 , , , , & >.:.:.:.:.:.=.@. ., : : > > ; ;.-.;.;.;.;.;.;.;.;.;.;.] ",
"] ;.;.;.;.;.;.;.-.:.,.>.;.;.;.;.%.o.&.-.;.;.;.;.;.;.;.*.; : , , , , ; % >.:.:.=.=.:.:.o.> < 3 , , , > = >.;.;.;.;.;.;.;.;.;.;.] ",
"] %.;.;.;.;.;.;.;.;.;.;.;.;.;.$. .> ; :.=.:.;.;.;.;.;.-.-.= & & & = % <.>.:.=.:.:.=.:.o.: 2 1 , , , , & ,.;.;.;.;.;.;.;.;.;.&.] ",
"] X.%.;.;.;.;.;.;.;.;.;.;.;.;.*.; > ; % :.;.;.;.;.;.;.;.-.;.,.,.,.,.,.>.:.=.=.:.:.=.=.&.; : , , , , ; % ,.;.;.;.;.;.;.;.-.$...] ",
"] { X.%.;.;.;.;.;.;.;.;.;.;.;.-.;.= % ,.>.;.;.;.;.;.;.;.;.-.;.;.;.;.;.;.=.:.:.=.:.:.:.=.:.= & & & = % <.>.;.;.;.;.;.-.-.&.o.{ ] ",
"] { X.%.;.;.;.;.;.;.;.;.;.;.;.;.-.:.,.>.;.;.;.;.;.;.;.;.;.;.;.;.&.o.o.o.o.O.&.;.:.;.;.;.=.:.>.,.,.>.>.>.;.;.;.;.;.;.;.;.&.o.{ ' ",
"] X.{ X.%.;.;.;.;.;.;.;.;.;.;.;.;.;.;.;.;.;.;.;.;.;.;.;.;.;.;.@. .> : > : > ; =.=.;.;.;.;.:.;.;.:.;.:.;.;.;.;.;.;.;.-.$...{ o.] ",
"] %.X.{ X.%.;.;.;.;.;.;.-.-.-.-.;.;.;.;.;.;.;.;.;.;.;.;.;.;.;.O.> < 3 , , < > = :.:.;.;.;.;.;.;.;.;.;.;.;.;.:.;.;.-.&.o.{ ..@.] ",
"] ;.%.X.{ X.%.%.;.;.;.;.$.O.*.-.;.;.;.;.;.;.;.;.;.;.;.;.;.;.;.O.: 2 1 , , , , & >.;.;.;.;.;.;.;.;.;.;.;.;.;.=.:.&.$...{ o.&.;.] ",
"] ;.;.%.X.{ X.X.%.%.;.@. .> ; -.-.;.;.;.;.;.;.;.;.;.;.;.;.;.;.&.; : , > , , ; % >.:.;.;.;.;.;.;.;.;.;.;.=.:.@.@...o.{ o.@.;.;.] ",
"] ;.;.;.%.X.{ { X.X.%.+.; > ; % :.;.;.;.;.;.;.;.;.;.;.;.;.;.;.-.=.= = & & = % <.>.;.;.;.;.;.;.:.;.;.;.;.&.@.o.o.{ { ..&.;.;.;.] ",
"] ;.;.;.;.%.X.X.{ { X.X.%.* & <.>.;.;.;.;.;.;.;.;.;.;.;.;.;.;.;.-.:.,.,.,.,.,.,.;.;.;.;.;.;.:.=.:.@.&.@...o.{ { o...&.=.;.;.;.] ",
"] @.;.;.;.;.%.%.X.X.{ { X.O.$.=.%.%.;.;.;.;.;.;.;.;.;.;.;.;.;.;.;.;.;.;.;.;.;.;.;.;.;.;.;.;.@.&.@...o.o.{ { o...&.$.;.;.;.;.;.] ",
"' } @.=.;.;.;.;.%.%.X.X.{ { { X.o...@.&.@.&.@.&.:.=.=.:.:.=.:.=.;.;.;.;.;.;.;.;.%.%.%.%.%.%.X.X.X.{ { { X.X.%.%.;.;.;.;.;.@.@.] ",
"o [  .@.;.;.;.;.;.;.%.%.X.X.X.{ { { o...o...o...@.&.&.@.&.&.@.&.$.&.@.&.&.@.@.&.X.X.X.X.X.X.{ { { X.X.X.%.%.;.;.;.;.;.;.@.} } ] ",
"O r [  .@.;.;.;.;.;.;.;.%.%.%.X...o.{ { { { { { o.o...o. .o.o.....o...o.o.....o.{ { { { { { X.X.X.%.%.%.;.;.;.;.;.;.@.@.} [ [ - ",
"+ ~ w [  .@.;.=.;.;.;.;.;.;.;.%.&.@.o...o...o.o.{ { { { { { { { { { { { { { { { X.X.X.X.X.X.%.%.%.;.;.;.;.;.;.;.;.@.} } [ p w o ",
"+ q p 9 [ } @.@.%.;.;.;.;.;.;.;.=.;.&.@.&.@.&.@...o...o.o...o...o.........o...o.%.%.%.%.%.%.;.;.;.;.;.;.;.;.;.@.@.} [ [ w f r + ",
"+ k 9 8 w { } } } +.+.%.+.$.%.+.:.;.;.;.;.;.=.:.&.@.&.@.@.&.@.&.&.@.&.&.&.@.@.&.;.;.;.;.;.;.;.;.;.;.;.;.;.@.@.} } [ w w s p r X ",
"+ u 6 9 Z p [ [ [ } X.}  .} }  .@.@.;.;.;.;.;.;.;.;.=.:.;.;.;.;.=.;.;.;.;.;.;.;.;.;.;.;.;.;.;.;.;.;.;.@.@.} } [ [ p j t 9 t w + ",
". u 9 u w p 8 t y [ [ [ [ [ [ [ }  .@.@.;.;.;.;.;.;.;.;.;.;.;.;.;.;.;.;.;.;.;.;.;.@.@.@.@.@.@.@.@.@.@.} } [ [ w s e p k ( r r + ",
"4 s 8 p s w w 8 B p 0 q p u B Z [ [ } } o.=.;.;.;.;.;.;.;.;.=.:.;.;.;.;.;.@.@.@.@.} } }  .} } } } } } [ { r H e f r r 8 t e H # ",
"o w p p f w p w w p s u k 8 9 8 9 6 [ { } @.@.;.:.=.;.;.;.;.:.=.;.;.@.@.@.} } } } [ [ [ [ [ [ [ [ [ [ y 9 E w u 9 Z 0 k p t r + ",
"# w 9 r w e r k 9 9 w r a f r p 0 w u p [ }  .@.@.@.@.o.@.@.@.@.@.@. .} } [ [ [ [ r P t 0 e y e w 0 8 U 8 w 6 u 9 r w p w m w O ",
"+ q p 9 p 9 ~ w t t 8 ( 8 p p k q w 8 i p [ [ } } } } }  .} } } } } [ [ [ s r f k t p e 0 H p ) p w p w f 0 w Z T Z w B Z r k o ",
"O B q e W t 0 t w w B p H s p p 9 0 W e q k p [ [ [ [ { [ [ [ [ [ [ q f f u s e j 9 k p a p u w t 9 9 a u 0 t p f w y 9 k r t + ",
"O 9 9 9 9 u 5 u t Z Z w Z u 9 9 r W s p 0 r H p r p r p u w u 9 q u p w 0 9 q t w t w p 0 9 p 7 r 9 e R t q f H a H p p f T ) o ",
"o r f 0 p q 8 B r 9 9 s q r w H u ~ q 0 8 p k r w Z r r p q q 0 q k 9 p q w f s w 0 7 p e ~ t 9 q i y p B p u q 8 8 f k r e m + ",
"  O j 9 9 p w u r 0 p 8 s u f 9 9 0 p B r j r w w r w r 0 r i p 8 k r R t e r 0 8 f p e r r 9 9 r u W p p 9 6 r t 0 u s r q +   ",
"  + e r 0 9 s u r p s r u W s p ~ t p 0 0 k f w q r r s Q j i Z w r r q 9 r p 8 r q 9 q r j f / t w B 9 w 0 8 u r ~ r 8 H f +   ",
"    # 9 w t 0 r u 8 8 H w p r r p k 8 u Z f r w t 9 s 0 p m 9 p w T B u r k k Y p w r B r 8 y ~ ! t s s k r H ^ 8 0 u 0 q o     ",
"      + r w e ! s u q f 9 s 9 H H e R r w p u 8 0 k p w j w H r w w w r w r ^ t q Z f f p H ~ r Z w w r u w t r f u 9 w O       ",
"        - R p H w q / r / Z p r r t s r r r w w q K ( p p p r p t k r p p B 8 8 r Z 9 8 8 w 0 r r H y s r r r p e 0 w +         ",
"          o 0 k p 9 9 w f r j u y p u p i q l p p i t Y t t p k Z i e r T 9 f p j k r p Z 9 r w p s f m e I 9 T K w -           ",
"            + O r r r f u 9 7 l 9 r r w e q y k k p 9 q 9 p p r H w t 8 9 f k 8 9 9 Z w 9 ! q Q 8 B w Z B 9 r 9 + 4             ",
"                o + e p p p 9 w w q 8 u s ~ r 8 j y 6 q u r 9 9 p w 9 q 5 r q u r 8 s Z t q s 9 w r k r p e O +                 ",
"                    + + t 8 f t p w i u r 8 w w u r r t Q p f 5 p t 9 p Z i p r m r 8 H t w q w s w p p X +                     ",
"                        O O o r q s ~ e f p w p w f t 8 s t t 9 P 8 9 f w j w r H 9 s k k ) r Z r X + O                         ",
"                              $ X o w 9 7 r r l Z 6 w B w w r p 0 p e 0 e Z e H j W s T 9 7 O o #                               ",
"                                    O + + O $ + T w q 9 9 p r t e j 9 p t k 0 w $ o O # + O                                     ",
"                                                + X O O X + # o @ + - O O # o +                                                 ",
"                                                                                                                                ",
"                                                                                                                                ",
"                                                                                                                                ",
"                                                                                                                                "
};
