/* XPM */
static char *_63998ca7e1f40befc13432a66fc1ba4tS47jEdZTDHHVYnO[] = {
/* columns rows colors chars-per-pixel */
"64 64 22 1 ",
"  c #4E4E4E",
". c gray32",
"X c gray33",
"o c #5B5B5B",
"O c gray36",
"+ c gray38",
"@ c #656565",
"# c #6A6A6A",
"$ c #6F6F6F",
"% c #717171",
"& c #777777",
"* c #7B7B7B",
"= c gray49",
"- c #808080",
"; c #848484",
": c gray54",
"> c gray56",
", c #909090",
"< c #959595",
"1 c gray60",
"2 c gray61",
"3 c gray63",
/* pixels */
">,>,,,,,,>><,>>><<,<:,,,>,>,>,,,<1<<<<<<,,>,,;,,,,<,>,>>,>>><1>O",
"<&*-;=&&&&*==-*&%&%**%&&=----=**&$$&*&&&&%&&*&*&*&**&*&**&&&=*&X",
",*=---==*;====**=-===-=**&=**&&**%%-=****=&*%=*&%%&&&%&&&&&*-=*O",
">=;====--;-=&*=-==*=-*=&*=---*&**====*%&*=%$*%=-*&=*=***&&&*;-*o",
",*=*======*&&****%=&*%%*&***==**=-&&*&&#%***&&*;*%=*&****=--*-=O",
",=-=&*==*%&---**&*&&&*&&*$&&&&*=*-==*%%=--*&&&*;-*%:;==-=-=;-&=O",
">*=**&==-*&*==*&=**=*==**=&&&*&&&&*&*-==&***=-==*&$---==-==**-% ",
":%&&%*=*&***&*%%**&&==&%&&$%&--;-=-*=****&%%&**%**$--=*=*==--==#",
">**&*%&%%&=*&***%&%*=*&&&#%=-=-****=%*&*&*&&%&%**==*==*=***===*X",
":$%&=$*=--**%*%$%##***&&$*=*-==**==&=&=*==*&*==-==&&=&&&&**--=*o",
">%%*-&&;==--=&$$&$$=&%&%=&&===*==-=&*=&=*=$&**==--*&&******===*X",
">$$&**==*===&&**=-&%&&=*=&***=*&*---**;=-==$*%*=-==**-*&*=*=***X",
":&*==**==***&&***==*$&&-*****&*&==----:;*=**&**=;-;*===*&***&*&o",
",**&*&&*-**=*-==&%&**&%=****-==*=**=-=--=*&&&&*&*&=*&*****===-=O",
">*&&&&*=-=&&&%*;==*=**%--;==-=*===-==&&;-**=%%%$%&&$%&&&&%**===O",
">-=-**%*&**==**==--=*==;-====-=**&==***-%%$%****=====;;-==&**&&o",
":&*=-**-**&***&&&&*&=-&==-=*****&=&*%&*%==**%*==**&&*====*-&*-=X",
">%**=**==*&****&*&==;=%==*=**=-&&&**----==**=-*=***&-===*&**%%$X",
">&====*==-=*&=&*%****=&=*&=*&==-;-==&-===-=*===--=-=&*=*&&&*%%%O",
">****&&*=**&$%=;--;;-$&==**-===****=*%****&&====;--=&*=*&&**-&*X",
",==*&&*&=;-=&*&***===&$=&==&&%%&%%***&=&&**&==--==*&****&&===-&X",
">%**$$&-:-********=**&#%*&&&=-*&***=*#$%%%%$%&***&%%%%%$$#$-==*o",
">#*=*&&:;:=-**&&%&==-=%=&**&*=*&&**==%&;:;=&&*=;*&&*-=**&$$=**%o",
"-&;-:;-=;;;*%&&*%-;--=*=*=*&****=&=--===;-=*---=&&%&***===-%**%.",
",&%=*&*=-;-=*=*=-;====**=---=&%*=--=*&&&&&&**&*&&%&=&*&&===;=*$X",
",=--=*====*%*=&&*&====&=-;-=*&&=-=-;*&%&%*&****=&%%%%%&&&&&*-$#o",
",*==&=**=**&=-*&&*****%***=****==-=;-===&---=**=&**&&%&&*%&&*&$X",
">*&*=**&*&**%**%**=-*&&****&%***=*-=*=--&*----*--=--=******&&-- ",
"<==*=****-=-*%%&&&**=*&*==*&%&&%&&&*&%&&&$&&*=**&*&******=*====X",
":&&%&%&&=====&**%***&&%&&&*=&&*&&%&%$+@&%%$%&&*&&%%&*%%&%%%%*&*X",
"<--*&&%*$$$$$##$%%$#$%#%$$$$$#@@$%%$##$$&%%&%**&==****&=-;---*=+",
"oooXXXXooXOoooXXXOoXo...XooXoX.Xo++OO@+Oo..oO++o++XXXoXXoOXoXooo",
"<<1<>,,<<<,1<,>1>>,,<2,<<<<<11:O11311<1<<><<11<21<<11<21,1<11211",
"=&&&&%**&%&&%##&$$%%%$$*%*%$&*%X,&**&%&%&%&&%%%%%&%&*****=&*&&%*",
"==**=*=**&%**%&***&&*&**%&&&&*&X<&*&&**&&&&*==*&%**=--=-*=*=*&&&",
"==*&&&*-=****%-===*&%&&=&*&%&=*O1&**&==*****==*=*------;---==*=*",
"=&%%&&=--=**&***=*&&%%*=-=**--&o<&*-==--;===------=*&**====-=&%=",
"*&&%%&*&*&%%%%&&=*&*$*&%&===---@1%*==**-==**=-==-=&*&&&*=******=",
"*-=*-=;;;;---=%%=-=*=;:-;*&-=*%O2$%***%%&%%&***%&*&&*===---;--==",
"-&*%%*-*--;=&*--=-%***=&&==%&&&O1@$*$&=-==--;-;;;==-&%=*=-====*&",
"==&*&-=-=**==&&&-&&&&===**&*%&=+1##%=-*&*--=*&%***%*==%&=***&=*;",
"-*&**&==*=*=*&***-%&%%&****&-*#.:#%:=-=*&%$**&%*&**=*=-:&&%&%&--",
"=**&*&&%&=--****&&$&$$%****&*$%O1#*;==**&&*-==&==-=-=&==***=--&=",
"=****=&&**===*&=**%*&***=***=**o<*-*&&=*****=*==--==&&-=**&==*%=",
"&***=*&&*&*===--=&***=**-=**=*&o1**--;&***&&&**==****==-====**&*",
"$&$&=*&*-;;;==-==&%=&==*==&&**%o<&==--;-%%&**=*&==&&=&=---=-=%&&",
";*&*-=&*==--**&**=&&====--;-==&+3*====-=-=&=*&&&==*&&***=*&%&&%:",
"&*==&&&==*=&%&&****--***=**%&*%+1*=--*&*=**%%*&$*=&*&&&*==***=;=",
"&***=&=***&*&-==*&$&&*&&*%&$%*$o2--=*=*%*====%=%&=&*&=-==-=&;===",
"&**&&*%%%%&&%&&&&%%%%&&&*&%%$*&O1=-&&**&*=**&***&*&%%&***==;-==&",
"&*=&&%*=-;-;----=&--=====*&==%=@3==*=*****&*&%=*=***=--===--=*&&",
"&&*&&&**==--==*=*&***&&&%$%***&O3&&**&&*****&*%*=%&*&=**=====***",
"&*&&&&*=--=-=-=&*&**&&*%&%&&*=%o2*&**&*&&*=*=*&-==*=*=*&*==*****",
"&&&*&&&*=-==-===&*&*&&&*==*&**&O<&&&&%%&%%%=*****=*&***=***%*%&*",
"=&&%%***--;--=***&%*&&&**==*=&$.2=*==-***$%==*=*******==*%&*&***",
"=&*&**&***==-=*&&&&&%%%*==&%&&$O1&**=*&*&*&=***&*&&**&==*%****=*",
"==-=-====*==-==**&%&**%&=*=%&&$O<&***&&&*=*=*=*&%%**=**&&*****==",
"=*==;&&*-=*&&&=*&&&&*&%%&&%%%$%o1$%&&&&%*=-&*=-*&&&&*==**&&=&*==",
"===&=&&&****%&&%%%&&%%&&&$$$$*%X<%***&*=**&=%&&***&*-==&%*-=-=--",
"*=====*=**===*&==*&--=****&***%o1&*&**&*&&&&*%&&%%&*=-%**===*===",
"&*=-==*=**=*-=*=**$*&&*%%&%&&*%O1&==-=-******=%&&%&=*&==**==*==-",
"&&*&**=&%&**=&==*$#%****-==%&&%O,&**&*&*&*&&&&=%$$%%*&&=-======*",
"##$%$%%%$$#@#***=$#$&$$$$&%&&%&X,%&&&*&$%%$&&%#$#@#$$#%**&*&&&%&",
"O++OoXXoOooooXoo.X. X  X XXXX..XXXXoXXXXo...XX ...... oOX.X..OXX"
};
