/* XPM */
static char *_d1c1cf2369a42049f8c1dee0d50d3d7Tak3xvU5YFIEpq6Z[] = {
/* columns rows colors chars-per-pixel */
"64 64 101 2 ",
"   c #4D4D4D",
".  c #4F5B44",
"X  c #525E46",
"o  c #545D4B",
"O  c #545454",
"+  c #5B5B5B",
"@  c #546247",
"#  c #576847",
"$  c #586847",
"%  c #56634A",
"&  c #59654C",
"*  c #576849",
"=  c #5B6B4B",
"-  c #5E714D",
";  c #5C6553",
":  c #5E6B52",
">  c #5F7050",
",  c #60734E",
"<  c #61744F",
"1  c #606F53",
"2  c #606A56",
"3  c #606B56",
"4  c #606858",
"5  c #616B58",
"6  c #626A5A",
"7  c #626B5A",
"8  c #636B5B",
"9  c #636C5B",
"0  c #656E5B",
"q  c #617351",
"w  c #627352",
"e  c #627450",
"r  c #637452",
"t  c #647653",
"y  c #657753",
"u  c #657755",
"i  c #647852",
"p  c #657854",
"a  c #687957",
"s  c #67705E",
"d  c #67705F",
"f  c #6A7B5A",
"g  c #636363",
"h  c #6A6D67",
"j  c DimGray",
"k  c gray42",
"l  c #6C6C6C",
"z  c #6D6D6D",
"x  c gray43",
"c  c #6F6F6F",
"v  c #677060",
"b  c #687160",
"n  c #6C7464",
"m  c #6E7566",
"M  c #6E7767",
"N  c #6F716B",
"B  c #6E726B",
"V  c #6F7968",
"C  c #707F61",
"Z  c #71756D",
"A  c #717969",
"S  c #737B6C",
"D  c gray44",
"F  c #717171",
"G  c gray45",
"H  c #737670",
"J  c #747474",
"K  c gray46",
"L  c #777777",
"P  c #757873",
"I  c #767973",
"U  c #777974",
"Y  c #797C76",
"T  c gray47",
"R  c #797979",
"E  c gray48",
"W  c #7B7B7B",
"Q  c #7C7C7C",
"!  c gray49",
"~  c gray50",
"^  c #7C807A",
"/  c #7E827C",
"(  c #80837D",
")  c #808080",
"_  c #818181",
"`  c gray51",
"'  c #838383",
"]  c #848484",
"[  c gray52",
"{  c #888888",
"}  c #8B8B8B",
"|  c gray55",
" . c #8E8E8E",
".. c gray56",
"X. c #909090",
"o. c #939393",
"O. c gray58",
"+. c #959595",
"@. c #989898",
"#. c #9B9B9B",
"$. c gray63",
/* pixels */
"..X...X.....X.....^ = = = = = = = $ o & < = = = $ = = m o.X.X.O.O.@.@.+.O.O.O.O.X.X.X.X.X.] X.X.X.X.+.X.X.X.$ 1 & X...{ , : @.+ ",
"+.L W ) ] ! = L & L = - = % = @ = = = = & @ = $ @ = # = ] ! Q W W k x L W L W L J F L L W L W L T T Q ! L L L ; = & @ % t ; ! + ",
"X.W ! ) ) ) - & @ ] < % = & 9 = = % % < = % = = = = = % q L J W W F F ) Q W T W Q Q L W J ! Q L F F J L = c = = = & $ 5 m ! ! q ",
"..! ] ! ! ! & ) ) ] ; = & = 9 = = = @ = = = % = = & - i & W L 5 W Q ! ! ! Q F L Q ! F c W x ! ) Q J ! W , % % = & = = & = ; ! + ",
"X.W ! W ! ! ! ) ! Q W q & < % = t , @ & = = ; = % ! 0 ! = q ; q ; ) W H W J J x J L Q W L L Q ] W F ! L & : ! @ < = = : % / ) o ",
"X.! ) ! L W ! ! W F L 0 ] ; ! q & & L ; & b Q 5 ! F L L L 5 W % = = % ! W L F W ) ) Q L L L L ] ) Q F } ] = & & < L @ = = = & = ",
"..W ! ! L W ! ! ) W U ! ) ! ! L = q ; e = ] ! W ! ! W T W W L L % L % W W ) ! Q L ! Q W ~ ) ! ~ Q L x ] ( = & % = = @ q = = = , ",
"} F F W F W W L L W W e ; L L F W q T : = ! L c T L x F L / ) ] ( = = W ! W W W L J J F L W L L L W c ) ! 5 Y ! < & @ = e o = X ",
"..W W Q Q F F % % @ ! W U ! W 5 & L 3 W @ ! W L L x F ! ) ! W W Q T = ! c u 3 W W W L F F J J L W W ! W W X % @ = P f = X % 5 @ ",
"} F c F ! F = : % Y W ; F W F F F j j W W ! J J c L W W ) W ! W B o = & ! J Q ! ! ! W L W ~ ! ) ~ W L L W @ u ; & Y q ; = = = % ",
"..F F W ) F L m = = = = ! W x x L x x ! W L L c ! L L ! ! ! W W $ : & t ; 8 L ! W ! F L W W Q ! Q W o = o , = = = q % < = @ = o ",
"..x F L = W = P H @ = 5 W L W W W ! L J L H W L W L L W ! W L % = & = = = = { Q ) ! ! F L L L W W = = & , = = % = @ = % t & = o ",
"} L W W - % @ ) = - = & W T W W L 4 % = & q G X & W X ; L H = : $ P ; @ = A { ] W ! W W L W Q Q o = o = = = $ = = = = = & & o q ",
"X.T W L ; W W ! L = 5 ) W ! ! ~ L F L @ u & x % u 0 & t & = = & = = = = = n ] ) ! W L L L W L = : & 8 = $ = & @ % = t ; = = q o ",
"..W L T L L W W 9 p 5 T F L W ' ! ! = < ! = q 5 i & ~ q = u = o t @ = n m Q W ] ! Q Q Q c F x = @ & = = = = o = f = X @ : 1 X o ",
"X.) ! ) W W F L L Q W ) ! W T W ! ) , = ! ! 1 ] = - ! W & % % = W ; - : ^ ! W ( F F x F W = L = @ t % = q 1 & , Q & L ! % W W O ",
"} L W ) ) W W b : W 5 W Q W L % w L ; q = 5 w : ! % ) T ; / ! ! W ! 5 W G L W F ~ ! T W G q @ @ W t t = X % = 8 Q o f L W S ! O ",
"..F W W ! W W W W W L W W W W q & W W U q ) = = ~ W ~ W W ~ ~ L W L W W ) ) ) ) ! ~ W W W : W @ 1 L W 3 = q & ) W & W W J F x O ",
"..T ! ! Q Q T ! ~ q 5 W L ~ L L = : : e & ~ J % T L ) T W W ! ' ) ) ! ! L ! ! ! W ~ ! W Q ~ W @ t 3 % , 1 X ; Q L L W W J J c + ",
"..T W T B o % ; W L W L c F ! ] ) t ] & = x L u : W W ) ~ ! ! W W W W ! L L W W W W L L ! Q W W = & & ; o f ] Q L L W L ~ L W O ",
"X.Q ! ! # : = : W : ] ~ T W H W L W W & = % F / L ~ ! W W F F L G L L W W L ! L T L L G ! ! u % 1 & = = $ = Q W F L ! ~ Q ( L O ",
"..F W W B ; = = = = W W W W W W Q W = : % U j 8 W L L G ! ! W L W L W ! W k x F F x % % % L = W & = = @ = ; F ; & = k ~ Q Q W + ",
"..j = ! = F ; @ - S ) ~ W W L L F F W H = = & = W W W L L ! W L L W W W ! x L ] ] = : = F = = % @ s @ = - @ ~ L W @ x ~ W W J O ",
") F - % ; ] ] s - 9 { W D L L W = ) : ! : % = 9 u ; e 3 W W W W L L L 5 & t ; ) ] ! ! = = = = @ ( L 5 = & ! ! W = , ] F W W F O ",
"X.W ; ! ! L ! ! V { ) ! T W L W q & & @ = * = @ 3 ) m ] ! L F W W o % ; L @ Y = J = , ; @ = m W W F T : W W T J 5 = ~ { W W c O ",
"X.! ) ] ! W ! ! ~ ~ W F W T ; @ % W W : % * : # ^ ) Q / W P L ! = & & { = = ; - @ % m W 9 = ; ! L F J F L J L L : u 8 L ) c k + ",
"X.U ! ! Y Q W W ! T T L ! = = % ; P % = = = - = = = = Z ; W W ! q = = = * = : & L ( Q ) p & ! ! L W W L L x L F L L L W W J x O ",
"X.W L Q W W W L Q L L W H W 9 = = % * % - > % = @ = % W = = % % u ; ; @ = u : = = = & ( ) ) ! 5 ; ! ) ) ! W W : ; W 5 T F ~ )   ",
"X.) W W ; = Q W Q ) H = T = % i @ = = , q % : - X = @ q & & p & . o W u = = L = o = 3 L Z Q W W : ; W W W L W W ; & = Q & % o O ",
"% = W N G @ L L Q ~ / = @ : : = = a = o ; L G = u : = X % = < % = % L = @ @ ; F & = = % = L % q 9 P F J L F F : @ - = = ; = T + ",
"$.@ ] W & - N ! x % e o T F l ; e & = = : : q & @ - @ = ; ; = : & F F % F - x : l & @ = ; u : X ; ~ W & % % ; % , = = ] = = = = ",
"% $ @ @ O - O o t : X : % = o & p ; ; : + % & o = = % u o = o = = - = = & = & e + O % , o g % t g + = ; = < = = o = & = o t @ - ",
"m > & e m u ; : = m ..e e 9 m i e 9 X./ & e = q = = n e = = : & t @ = ^ ..@ < = O.....m @.+.p = ..; = : = = @ = = % u @ & @.L , ",
"= = - = % @ = & q & % = % @ ; @ o o & l = = e & = = = * = @ o = X.= = o - - P - = ; , & L F F = = & q = = % = = @ = 5 ! / ! U ; ",
"q ! @ = % p 3 = & = = 1 p q : = @ : = u t & % = % @ = B % = ; + +.L : W @ = U L 1 & = = ! W T L = @ @ , = X = = % q ; m W L H W ",
"5 W s @ @ q = @ & = = & = q = $ : q e @ - % q & @ o - ; W 9 W + @.W W W @ i ; = W & % = ) ! = W = & & & = ; = & ) ; ] ) ! W ! W ",
"/ W L x & , & = - % = = @ @ = = = @ - * q & X & & ) : W ~ ) L + +.L W ! ! e - ] ! = - ) ] ! q % ; ] ) n = ; n Q ) ~ ) ) ! L F ! ",
"W L G F 3 e & o - = = = & = - & e & % - o X = ; W / ! ' ~ ] ) j @.c L W : ! 5 ) ) % = = W ) 3 ( ] ! T W 5 W Q Q ! W W W W W ! ! ",
"W ~ ! W ( = ] = ; & @ = = t @ & = = = = @ ; = ; } L L ) ! W F + #.c L W W W G L Z 5 p % W W W F L Y L T Q Q Q ) ) ) ! ] ] ! ! ! ",
") L L L F , & @ ) ) & - = & = A X = 9 : Q ! ; W T ~ ! F W L L + @.j c W x L ! ! W ! = = Q ) ) m ; ! Q ( T J Q T ! ) ! ! ! W W L ",
"~ ! W W L & ! ] ~ W W q % % @ ! ; = ; 9 ! ! ! ! Q Q L W F L W g +.j x F W ] W F v & ) = W L X ; = & q L Q ! Z L ! L W W L ! W ] ",
"~ W L W W L ~ ! W ! Z & W = , ( Q A F T U F G % q W W L / W k O ..j F } ) ) W W L J x u ; L @ p & t & : 4 & = } W L F L L c ) ) ",
"! W W L W L G G L W ) ] ; & = L H W x L c x L e = W W N W c F + @.j W ] ! ! ! W L W W ! ! C : t q & , = q t @ ! W W W ! ) ! L ! ",
"! W W W ! ! L L W W ! ! Q 8 = h Q Q J W G W W ! - : 5 > & W W + @.L ) W L L W W W L : W 0 W ! ) ' = , & q = - ( W W L ! ! ! F ! ",
"W W W W ~ W L W L W Q ! Q = q ) ~ L W ! W ! W W ] q W & - ! W + @.Q W ! ~ ] J W W W L L W W 5 ! ! W 3 ! : % = ^ ! ! ! Q W W L W ",
"x L x W ! L L W ) ] ] / Z : = 9 ~ L G ! W ! W W ! Q L L % W G O @.F ! Z & ) ] ) F F L L W ! ! L W ! W Z = = ^ = ) ) ! ) ! F L L ",
"] W F W ! ! L W ! W ) ! X ; a ; W ! G L ! ! ) ! ) ) ] ) ! ! L g $.W H ! = 9 ~ ! ] ! L W L L L L ! Q Q L @ = W W ! Q L F W F F ..",
"L W ! ! W W F ! ! W W L X u ; = L & W ~ ! W W W ! W W G T W F g @.W % q : ! W W Q L W L F W L F Q ! L L @ u o = L & ! W W ! ' Q ",
"L W W W ) F ) W L X ; Q : e = - & o u L e ; L L W F G F F W c + #.q : X ; Q W L W ! ! ! ! F ! F L ! L W W q = ~ 5 ; f L ) ! ! ) ",
"L W W L L W G G x % u 5 = = q ; o p ; F c W L W W L F F x W L + #.W Q W W L W L W ! W W L W W W L W L x : F @ ; L = W ' ( ! W T ",
"L W ! L L F W ! ) ] u = f & o = q * ( ) W ! / W ! W W W ! G ! g $.Q 5 Q ! W W W W L L W L F W ! ! W W W ! ! @ u m = t & Q W L L ",
"L L W L L L W Q ! W W ) = : = ~ ; = % % % s L G F x x L T e ; g $.L W Q T W L W W W W W L W F W Q J L W L W ; = & W ; o u W W W ",
"L W L L L L L ! ) ~ 5 = = = = = = & @ i : - F & h o * % U W H + @.Q T W W W L L L ! ! W ! W L ) Q Q W Q W = = & L ! P & ( Q W W ",
"L L W L L L L W ! ! = W % , @ @ = 5 ; - : W J o e : % 5 o & G + O.J L L L F L F F F F ! W W W W Q ! W W L L 5 = = % = L Q F L W ",
"Q L L x F W W W ~ ! - = - 5 W ; q ; F 0 W L J = ! ! = = = = : : O.& Q Q ! ! W W W x F ! ! W ! W W W W = L = & = @ = 4 W L W W Q ",
"! L W W W W L W W W ; m = ! W U 5 p 5 F J F = L = ) H % = e : + A & q Q ! W L W L W L ~ W W W L W J J , @ X Q @ ; , & W W W ) Q ",
"Q ~ ~ ~ ) ~ ! Q W ! ~ 8 u o @ ; W J T W W L 1 & & ! W : - @ % & @.% Z o W L L L W ! L W W ! W L F F W & ( Q = , W ; ! ! W Q ! Q ",
"! W Q Q ] L L Q ~ ! W G = : = m T : F T T L ; F L L J F = : % % +.q ; , 3 W L J ! Q ) W Q ! ) W T L L L ! W v = W W L ! W L ! ( ",
"~ Q Q L Q L H L W W Z = L ; = = = = T F J F J T P x Z k j & = = = @ t 4 Q W W Q W W L W F L L W Q W L W ) ! ; a ; ! ) ! ~ ~ ) ) ",
"W Q Q Q ! ~ L . 5 W = ! : U ; @ = n T ] ] W W Q ! T : L = : % @ = = X ; ! T L W L L L L W F L L F c L W Q ! Z Q t d ! ! W Q ! ! ",
"L W ~ ~ Q ! W @ p Y = @ @ ! W ; = 8 F T L L L J J L : % % L = % = = ) ~ ) Q ) W W W L W W ! F T W J J F o & & ! 5 Q ! W W ! ! ) ",
"J L Q L W Q ! W p : 5 3 ; a W ! n x x J W ! W W ) T : J = L x @ = ; Q W W W L T L Q L W L L ! F j F Z = = & s Q 8 ) ! ! Q ! ~ Q ",
"j j c J x F D L x x j j % Q W W W x l x L Z k c c J = @ o L J o = % W J L W L x F x x T L c j x c g j l ; = = & & W L L L J F J ",
"+ g g + + O O + + + + + + O + + O O O   O     O O O @ O O O O O o + + O O O O + + O O O O O   O O = O &   o @ = o O O O O + + O "
};
